<svg width="25" height="24" viewBox="0 0 25 24" fill="none" xmlns="http://www.w3.org/2000/svg">
<path d="M17.351 14C17.431 13.34 17.491 12.68 17.491 12C17.491 11.32 17.431 10.66 17.351 10H20.731C20.891 10.64 20.991 11.31 20.991 12C20.991 12.69 20.891 13.36 20.731 14H17.351ZM15.581 19.56C16.181 18.45 16.641 17.25 16.961 16H19.911C18.9421 17.6683 17.4051 18.932 15.581 19.56ZM15.331 14H10.651C10.551 13.34 10.491 12.68 10.491 12C10.491 11.32 10.551 10.65 10.651 10H15.331C15.421 10.65 15.491 11.32 15.491 12C15.491 12.68 15.421 13.34 15.331 14ZM12.991 19.96C12.161 18.76 11.491 17.43 11.081 16H14.901C14.491 17.43 13.821 18.76 12.991 19.96ZM8.99097 8H6.07097C7.02982 6.32721 8.56576 5.06149 10.391 4.44C9.79097 5.55 9.34097 6.75 8.99097 8ZM6.07097 16H8.99097C9.34097 17.25 9.79097 18.45 10.391 19.56C8.56959 18.9317 7.03581 17.6677 6.07097 16ZM5.25097 14C5.09097 13.36 4.99097 12.69 4.99097 12C4.99097 11.31 5.09097 10.64 5.25097 10H8.63097C8.55097 10.66 8.49097 11.32 8.49097 12C8.49097 12.68 8.55097 13.34 8.63097 14H5.25097ZM12.991 4.03C13.821 5.23 14.491 6.57 14.901 8H11.081C11.491 6.57 12.161 5.23 12.991 4.03ZM19.911 8H16.961C16.648 6.76146 16.1845 5.5659 15.581 4.44C17.421 5.07 18.951 6.34 19.911 8ZM12.991 2C7.46097 2 2.99097 6.5 2.99097 12C2.99097 14.6522 4.04454 17.1957 5.9199 19.0711C6.84848 19.9997 7.95088 20.7362 9.16413 21.2388C10.3774 21.7413 11.6777 22 12.991 22C15.6431 22 18.1867 20.9464 20.062 19.0711C21.9374 17.1957 22.991 14.6522 22.991 12C22.991 10.6868 22.7323 9.38642 22.2298 8.17317C21.7272 6.95991 20.9906 5.85752 20.062 4.92893C19.1334 4.00035 18.0311 3.26375 16.8178 2.7612C15.6045 2.25866 14.3042 2 12.991 2Z" fill="#828282"/>
</svg>
